<svg xmlns="http://www.w3.org/2000/svg" width="23" height="22" viewBox="0 0 23 22" fill="none">
  <path d="M12.6 3.2998C11.9925 3.2998 11.5 3.79229 11.5 4.3998C11.5 5.00732 11.9925 5.4998 12.6 5.4998H15.4444L8.52217 12.422C8.09259 12.8516 8.09259 13.548 8.52217 13.9776C8.95175 14.4072 9.64823 14.4072 10.0778 13.9776L17 7.05544V9.89981C17 10.5073 17.4925 10.9998 18.1 10.9998C18.7075 10.9998 19.2 10.5073 19.2 9.89981V4.3998C19.2 3.79229 18.7075 3.2998 18.1 3.2998H12.6Z" fill="#137D60"/>
  <path d="M5.99999 5.4998C4.78496 5.4998 3.79999 6.48478 3.79999 7.6998V16.4998C3.79999 17.7148 4.78496 18.6998 5.99999 18.6998H14.8C16.015 18.6998 17 17.7148 17 16.4998V13.1998C17 12.5923 16.5075 12.0998 15.9 12.0998C15.2925 12.0998 14.8 12.5923 14.8 13.1998V16.4998H5.99999V7.6998L9.29999 7.6998C9.9075 7.6998 10.4 7.20732 10.4 6.5998C10.4 5.99229 9.9075 5.4998 9.29999 5.4998H5.99999Z" fill="#137D60"/>
</svg>