<svg width="62" height="22" viewBox="0 0 62 22" fill="none" xmlns="http://www.w3.org/2000/svg">
    <path fill-rule="evenodd" clip-rule="evenodd" d="M45.455 6.84153C41.6117 2.59773 36.4489 0 30.7723 0C25.0958 0 19.933 2.59773 16.0897 6.84153C18.3812 7.2695 20.7156 7.83653 23.0534 8.51682C25.0506 9.09804 26.9298 9.73049 28.505 10.3304C29.1344 10.5701 30.7105 11.2696 30.7723 11.3014C30.8341 11.2696 32.4103 10.5701 33.0396 10.3304C34.6149 9.73049 36.494 9.09804 38.4913 8.51682C40.829 7.83653 43.1635 7.2695 45.455 6.84153ZM9.70645 14.6178C8.86792 16.8579 8.29547 19.2226 8.00589 21.6601C3.27926 21.137 0 13.6527 0 11.864C0 8.89802 3.44153 7.41502 7.04427 7.41502C9.12577 7.41502 11.2476 7.5963 13.3189 7.89115C11.8554 9.8859 10.6318 12.1458 9.70645 14.6178ZM30.0308 12.6055C29.2893 12.6055 23.0463 14.4783 18.7229 16.8692C17.7589 17.4023 16.8155 17.9694 15.899 18.5204C13.5593 19.9269 11.3945 21.2283 9.50871 21.5899C9.79661 19.3277 10.3372 17.1632 11.0953 15.1377C12.0621 12.555 13.3827 10.1984 14.9846 8.15359C23.1026 9.5531 30.0308 12.465 30.0308 12.6055ZM51.6221 14.058C52.5786 16.4615 53.2248 19.0177 53.5388 21.6601C58.2654 21.137 61.5447 13.6527 61.5447 11.864C61.5447 8.89802 58.1031 7.41502 54.5004 7.41502C52.4188 7.41502 50.297 7.59632 48.2255 7.89118C49.5771 9.73359 50.7246 11.8029 51.6221 14.058ZM42.8217 16.8692C38.4984 14.4783 32.2553 12.6055 31.5138 12.6055C31.5138 12.465 38.4421 9.5531 46.5601 8.15359C48.0514 10.0573 49.299 12.2313 50.2442 14.6064C51.1104 16.7831 51.7227 19.1286 52.036 21.5899C50.1501 21.2283 47.9854 19.9269 45.6457 18.5204C44.7291 17.9694 43.7857 17.4023 42.8217 16.8692Z" fill="white" />
</svg>