<svg width="95" height="22" viewBox="0 0 95 22" fill="none" xmlns="http://www.w3.org/2000/svg">
    <path fill-rule="evenodd" clip-rule="evenodd" d="M2.47179 15.1532V6.65039H0.476562V5.51385H2.47179V2.25107H3.79345V5.51385H6.23798V6.65039H3.79345V14.9555C3.79345 15.9195 4.1925 16.587 5.04084 16.587C5.61465 16.587 6.11309 16.315 6.38762 16.0184L6.88643 17.007C6.41275 17.4519 5.83893 17.7488 4.84095 17.7488C3.24476 17.7488 2.47179 16.7848 2.47179 15.1532Z" fill="white" />
    <path fill-rule="evenodd" clip-rule="evenodd" d="M18.085 11.4706C18.085 8.82547 16.5139 6.37884 13.6703 6.37884C10.8766 6.37884 9.28045 8.82547 9.28045 11.4706C9.28045 14.1398 10.8766 16.5872 13.6703 16.5872C16.5139 16.5872 18.085 14.1398 18.085 11.4706ZM7.88379 11.4706C7.88379 7.98515 10.1532 5.21704 13.6703 5.21704C17.237 5.21704 19.4816 7.98515 19.4816 11.4706C19.4816 14.9556 17.237 17.7486 13.6703 17.7486C10.1532 17.7486 7.88379 14.9556 7.88379 11.4706Z" fill="white" />
    <path fill-rule="evenodd" clip-rule="evenodd" d="M31.8018 11.4706C31.8018 8.57869 30.2806 6.37884 27.5867 6.37884C25.9151 6.37884 24.319 7.36745 23.6206 8.50436V14.4119C24.319 15.5488 25.9151 16.5872 27.5867 16.5872C30.2806 16.5872 31.8018 14.3621 31.8018 11.4706ZM23.6206 15.5239V22H22.3237V5.51362H23.6206V7.39199C24.469 6.18112 26.0153 5.21704 27.811 5.21704C31.0285 5.21704 33.1985 7.63914 33.1985 11.4706C33.1985 15.2771 31.0285 17.7486 27.811 17.7486C26.115 17.7486 24.5935 16.8834 23.6206 15.5239Z" fill="white" />
    <path fill-rule="evenodd" clip-rule="evenodd" d="M35.2676 11.4706C35.2676 7.98515 37.5872 5.21704 41.1288 5.21704C43.2241 5.21704 44.4213 6.03246 45.3941 7.24369L44.4963 8.03458C43.6232 6.84825 42.5258 6.37884 41.2034 6.37884C38.3853 6.37884 36.6642 8.60322 36.6642 11.4706C36.6642 14.3375 38.3853 16.5872 41.2034 16.5872C42.5258 16.5872 43.6232 16.0925 44.4963 14.9062L45.3941 15.6971C44.4213 16.9328 43.2241 17.7486 41.1288 17.7486C37.5872 17.7486 35.2676 14.9556 35.2676 11.4706Z" fill="white" />
    <path fill-rule="evenodd" clip-rule="evenodd" d="M57.2905 11.4706C57.2905 8.82547 55.7191 6.37884 52.8759 6.37884C50.0822 6.37884 48.486 8.82547 48.486 11.4706C48.486 14.1398 50.0822 16.5872 52.8759 16.5872C55.7191 16.5872 57.2905 14.1398 57.2905 11.4706ZM47.0894 11.4706C47.0894 7.98515 49.3587 5.21704 52.8759 5.21704C56.4426 5.21704 58.6872 7.98515 58.6872 11.4706C58.6872 14.9556 56.4426 17.7486 52.8759 17.7486C49.3587 17.7486 47.0894 14.9556 47.0894 11.4706Z" fill="white" />
    <path fill-rule="evenodd" clip-rule="evenodd" d="M70.4089 14.4613V8.55378C69.7102 7.39198 68.1391 6.37884 66.4432 6.37884C63.774 6.37884 62.2277 8.60321 62.2277 11.4951C62.2277 14.387 63.774 16.5872 66.4432 16.5872C68.1391 16.5872 69.7102 15.5982 70.4089 14.4613ZM70.4089 17.452V15.5488C69.5609 16.7849 68.0146 17.749 66.2186 17.749C63.0262 17.749 60.8311 15.3261 60.8311 11.4951C60.8311 7.71346 63.0262 5.21703 66.2186 5.21703C67.9393 5.21703 69.436 6.08188 70.4089 7.44141V0.966003H71.7309V17.452H70.4089Z" fill="white" />
    <path fill-rule="evenodd" clip-rule="evenodd" d="M80.3603 6.32941C77.5171 6.32941 76.0953 8.80094 75.9955 10.8774H84.7502C84.725 8.85037 83.3782 6.32941 80.3603 6.32941ZM74.5737 11.4706C74.5737 8.01005 77.0426 5.21704 80.385 5.21704C84.0515 5.21704 86.0722 8.10891 86.0722 11.5445V11.8905H75.9955C76.1197 14.4858 77.8662 16.6362 80.7094 16.6362C82.2306 16.6362 83.6277 16.068 84.6504 14.9805L85.324 15.8208C84.1265 17.0566 82.6049 17.7486 80.6097 17.7486C77.0925 17.7486 74.5737 15.1533 74.5737 11.4706Z" fill="white" />
    <path fill-rule="evenodd" clip-rule="evenodd" d="M88.9141 17.452V5.514H90.211V7.56518C91.2337 6.23056 92.6052 5.26648 94.2768 5.26648V6.67543C94.0522 6.626 93.8778 6.626 93.6284 6.626C92.4061 6.626 90.76 7.71348 90.211 8.75152V17.452H88.9141Z" fill="white" />
</svg>